<?xml version="1.0" encoding="UTF-8"?>
<svg id="_レイヤー_1" data-name="レイヤー_1" xmlns="http://www.w3.org/2000/svg" viewBox="0 0 48.73 66.18">
  <defs>
    <style>
      .cls-1 {
        fill: none;
        stroke: #b9c9e8;
        stroke-miterlimit: 10;
        stroke-width: .03px;
      }
    </style>
  </defs>
  <line class="cls-1" x1="-9.98" y1="3.99" x2="57.41" y2="3.99"/>
  <line class="cls-1" x1="-9.98" y1="2" x2="57.41" y2="2"/>
  <line class="cls-1" x1="-9.98" y1="5.98" x2="57.41" y2="5.98"/>
  <line class="cls-1" x1="-9.98" y1="7.97" x2="57.41" y2="7.97"/>
  <line class="cls-1" x1="-9.98" y1="9.96" x2="57.41" y2="9.96"/>
  <line class="cls-1" x1="-9.98" y1="11.95" x2="57.41" y2="11.95"/>
  <line class="cls-1" x1="-9.98" y1="13.94" x2="57.41" y2="13.94"/>
  <line class="cls-1" x1="-9.98" y1="15.93" x2="57.41" y2="15.93"/>
  <line class="cls-1" x1="-9.98" y1="17.92" x2="57.41" y2="17.92"/>
  <line class="cls-1" x1="-9.98" y1="19.91" x2="57.41" y2="19.91"/>
  <line class="cls-1" x1="-9.98" y1="21.9" x2="57.41" y2="21.9"/>
  <line class="cls-1" x1="-9.98" y1="23.89" x2="57.41" y2="23.89"/>
  <line class="cls-1" x1="-9.98" y1="25.88" x2="57.41" y2="25.88"/>
  <line class="cls-1" x1="-9.98" y1="27.87" x2="57.41" y2="27.87"/>
  <line class="cls-1" x1="-9.98" y1="29.86" x2="57.41" y2="29.86"/>
  <line class="cls-1" x1="-9.98" y1="31.85" x2="57.41" y2="31.85"/>
  <line class="cls-1" x1="-9.98" y1="33.84" x2="57.41" y2="33.84"/>
  <line class="cls-1" x1="-9.98" y1="35.83" x2="57.41" y2="35.83"/>
  <line class="cls-1" x1="-9.98" y1="37.82" x2="57.41" y2="37.82"/>
  <line class="cls-1" x1="-9.98" y1="39.81" x2="57.41" y2="39.81"/>
  <line class="cls-1" x1="-9.98" y1="41.8" x2="57.41" y2="41.8"/>
  <line class="cls-1" x1="-9.98" y1="43.79" x2="57.41" y2="43.79"/>
  <line class="cls-1" x1="-9.98" y1="45.78" x2="57.41" y2="45.78"/>
  <line class="cls-1" x1="-9.98" y1="47.77" x2="57.41" y2="47.77"/>
  <line class="cls-1" x1="-9.98" y1="49.76" x2="57.41" y2="49.76"/>
  <line class="cls-1" x1="-9.98" y1="51.75" x2="57.41" y2="51.75"/>
  <line class="cls-1" x1="-9.98" y1="53.74" x2="57.41" y2="53.74"/>
  <line class="cls-1" x1="-9.98" y1="55.73" x2="57.41" y2="55.73"/>
  <line class="cls-1" x1="-9.98" y1="57.72" x2="57.41" y2="57.72"/>
  <line class="cls-1" x1="-9.98" y1="59.71" x2="57.41" y2="59.71"/>
  <line class="cls-1" x1="-9.98" y1="63.69" x2="57.41" y2="63.69"/>
  <line class="cls-1" x1="-9.98" y1="61.7" x2="57.41" y2="61.7"/>
  <line class="cls-1" x1="-9.98" y1="65.68" x2="57.41" y2="65.68"/>
  <line class="cls-1" x1="-9.98" y1="3.33" x2="57.41" y2="3.33"/>
  <line class="cls-1" x1="-9.98" y1="1.34" x2="57.41" y2="1.34"/>
  <line class="cls-1" x1="-9.98" y1="5.32" x2="57.41" y2="5.32"/>
  <line class="cls-1" x1="-9.98" y1="7.31" x2="57.41" y2="7.31"/>
  <line class="cls-1" x1="-9.98" y1="9.3" x2="57.41" y2="9.3"/>
  <line class="cls-1" x1="-9.98" y1="11.29" x2="57.41" y2="11.29"/>
  <line class="cls-1" x1="-9.98" y1="13.28" x2="57.41" y2="13.28"/>
  <line class="cls-1" x1="-9.98" y1="15.27" x2="57.41" y2="15.27"/>
  <line class="cls-1" x1="-9.98" y1="17.26" x2="57.41" y2="17.26"/>
  <line class="cls-1" x1="-9.98" y1="19.25" x2="57.41" y2="19.25"/>
  <line class="cls-1" x1="-9.98" y1="21.24" x2="57.41" y2="21.24"/>
  <line class="cls-1" x1="-9.98" y1="23.23" x2="57.41" y2="23.23"/>
  <line class="cls-1" x1="-9.98" y1="25.22" x2="57.41" y2="25.22"/>
  <line class="cls-1" x1="-9.98" y1="27.21" x2="57.41" y2="27.21"/>
  <line class="cls-1" x1="-9.98" y1="29.2" x2="57.41" y2="29.2"/>
  <line class="cls-1" x1="-9.98" y1="31.19" x2="57.41" y2="31.19"/>
  <line class="cls-1" x1="-9.98" y1="33.18" x2="57.41" y2="33.18"/>
  <line class="cls-1" x1="-9.98" y1="35.17" x2="57.41" y2="35.17"/>
  <line class="cls-1" x1="-9.98" y1="37.16" x2="57.41" y2="37.16"/>
  <line class="cls-1" x1="-9.98" y1="39.15" x2="57.41" y2="39.15"/>
  <line class="cls-1" x1="-9.98" y1="41.14" x2="57.41" y2="41.14"/>
  <line class="cls-1" x1="-9.98" y1="43.13" x2="57.41" y2="43.13"/>
  <line class="cls-1" x1="-9.98" y1="45.12" x2="57.41" y2="45.12"/>
  <line class="cls-1" x1="-9.98" y1="47.11" x2="57.41" y2="47.11"/>
  <line class="cls-1" x1="-9.98" y1="49.1" x2="57.41" y2="49.1"/>
  <line class="cls-1" x1="-9.98" y1="51.09" x2="57.41" y2="51.09"/>
  <line class="cls-1" x1="-9.98" y1="53.08" x2="57.41" y2="53.08"/>
  <line class="cls-1" x1="-9.98" y1="55.07" x2="57.41" y2="55.07"/>
  <line class="cls-1" x1="-9.98" y1="57.06" x2="57.41" y2="57.06"/>
  <line class="cls-1" x1="-9.98" y1="59.05" x2="57.41" y2="59.05"/>
  <line class="cls-1" x1="-9.98" y1="63.03" x2="57.41" y2="63.03"/>
  <line class="cls-1" x1="-9.98" y1="61.04" x2="57.41" y2="61.04"/>
  <line class="cls-1" x1="-9.98" y1="65.02" x2="57.41" y2="65.02"/>
  <line class="cls-1" x1="-9.98" y1="2.67" x2="57.41" y2="2.67"/>
  <line class="cls-1" x1="-9.98" y1=".68" x2="57.41" y2=".68"/>
  <line class="cls-1" x1="-9.98" y1="4.66" x2="57.41" y2="4.66"/>
  <line class="cls-1" x1="-9.98" y1="6.65" x2="57.41" y2="6.65"/>
  <line class="cls-1" x1="-9.98" y1="8.64" x2="57.41" y2="8.64"/>
  <line class="cls-1" x1="-9.98" y1="10.63" x2="57.41" y2="10.63"/>
  <line class="cls-1" x1="-9.98" y1="12.62" x2="57.41" y2="12.62"/>
  <line class="cls-1" x1="-9.98" y1="14.61" x2="57.41" y2="14.61"/>
  <line class="cls-1" x1="-9.98" y1="16.6" x2="57.41" y2="16.6"/>
  <line class="cls-1" x1="-9.98" y1="18.59" x2="57.41" y2="18.59"/>
  <line class="cls-1" x1="-9.98" y1="20.58" x2="57.41" y2="20.58"/>
  <line class="cls-1" x1="-9.98" y1="22.57" x2="57.41" y2="22.57"/>
  <line class="cls-1" x1="-9.98" y1="24.56" x2="57.41" y2="24.56"/>
  <line class="cls-1" x1="-9.98" y1="26.55" x2="57.41" y2="26.55"/>
  <line class="cls-1" x1="-9.98" y1="28.54" x2="57.41" y2="28.54"/>
  <line class="cls-1" x1="-9.98" y1="30.53" x2="57.41" y2="30.53"/>
  <line class="cls-1" x1="-9.98" y1="32.52" x2="57.41" y2="32.52"/>
  <line class="cls-1" x1="-9.98" y1="34.51" x2="57.41" y2="34.51"/>
  <line class="cls-1" x1="-9.98" y1="36.5" x2="57.41" y2="36.5"/>
  <line class="cls-1" x1="-9.98" y1="38.49" x2="57.41" y2="38.49"/>
  <line class="cls-1" x1="-9.98" y1="40.48" x2="57.41" y2="40.48"/>
  <line class="cls-1" x1="-9.98" y1="42.47" x2="57.41" y2="42.47"/>
  <line class="cls-1" x1="-9.98" y1="44.46" x2="57.41" y2="44.46"/>
  <line class="cls-1" x1="-9.98" y1="46.45" x2="57.41" y2="46.45"/>
  <line class="cls-1" x1="-9.98" y1="48.44" x2="57.41" y2="48.44"/>
  <line class="cls-1" x1="-9.98" y1="50.43" x2="57.41" y2="50.43"/>
  <line class="cls-1" x1="-9.98" y1="52.42" x2="57.41" y2="52.42"/>
  <line class="cls-1" x1="-9.98" y1="54.41" x2="57.41" y2="54.41"/>
  <line class="cls-1" x1="-9.98" y1="56.4" x2="57.41" y2="56.4"/>
  <line class="cls-1" x1="-9.98" y1="58.39" x2="57.41" y2="58.39"/>
  <line class="cls-1" x1="-9.98" y1="62.37" x2="57.41" y2="62.37"/>
  <line class="cls-1" x1="-9.98" y1="60.38" x2="57.41" y2="60.38"/>
  <line class="cls-1" x1="-9.98" y1="64.36" x2="57.41" y2="64.36"/>
  <line class="cls-1" x1=".91" y1="66.88" x2=".91" y2="-.52"/>
  <line class="cls-1" x1="1.56" y1="66.82" x2="1.56" y2="-.57"/>
  <line class="cls-1" x1="3.51" y1="66.82" x2="3.51" y2="-.57"/>
  <line class="cls-1" x1="5.47" y1="66.82" x2="5.47" y2="-.57"/>
  <line class="cls-1" x1="7.42" y1="66.82" x2="7.42" y2="-.57"/>
  <line class="cls-1" x1="9.38" y1="66.82" x2="9.38" y2="-.57"/>
  <line class="cls-1" x1="11.33" y1="66.82" x2="11.33" y2="-.57"/>
  <line class="cls-1" x1="13.29" y1="66.82" x2="13.29" y2="-.57"/>
  <line class="cls-1" x1="15.24" y1="66.82" x2="15.24" y2="-.57"/>
  <line class="cls-1" x1="17.2" y1="66.82" x2="17.2" y2="-.57"/>
  <line class="cls-1" x1="19.15" y1="66.82" x2="19.15" y2="-.57"/>
  <line class="cls-1" x1="21.11" y1="66.82" x2="21.11" y2="-.57"/>
  <line class="cls-1" x1="23.06" y1="66.82" x2="23.06" y2="-.57"/>
  <line class="cls-1" x1="25.02" y1="66.82" x2="25.02" y2="-.57"/>
  <line class="cls-1" x1="26.97" y1="66.82" x2="26.97" y2="-.57"/>
  <line class="cls-1" x1="28.93" y1="66.82" x2="28.93" y2="-.57"/>
  <line class="cls-1" x1="30.88" y1="66.82" x2="30.88" y2="-.57"/>
  <line class="cls-1" x1="32.84" y1="66.82" x2="32.84" y2="-.57"/>
  <line class="cls-1" x1="34.79" y1="66.82" x2="34.79" y2="-.57"/>
  <line class="cls-1" x1="36.75" y1="66.82" x2="36.75" y2="-.57"/>
  <line class="cls-1" x1="38.7" y1="66.82" x2="38.7" y2="-.57"/>
  <line class="cls-1" x1="40.66" y1="66.82" x2="40.66" y2="-.57"/>
  <line class="cls-1" x1="42.61" y1="66.82" x2="42.61" y2="-.57"/>
  <line class="cls-1" x1="44.57" y1="66.82" x2="44.57" y2="-.57"/>
  <line class="cls-1" x1="46.52" y1="66.82" x2="46.52" y2="-.57"/>
  <line class="cls-1" x1=".26" y1="66.82" x2=".26" y2="-.57"/>
  <line class="cls-1" x1="2.21" y1="66.82" x2="2.21" y2="-.57"/>
  <line class="cls-1" x1="4.17" y1="66.82" x2="4.17" y2="-.57"/>
  <line class="cls-1" x1="6.12" y1="66.82" x2="6.12" y2="-.57"/>
  <line class="cls-1" x1="8.08" y1="66.82" x2="8.08" y2="-.57"/>
  <line class="cls-1" x1="10.03" y1="66.82" x2="10.03" y2="-.57"/>
  <line class="cls-1" x1="11.99" y1="66.82" x2="11.99" y2="-.57"/>
  <line class="cls-1" x1="13.94" y1="66.82" x2="13.94" y2="-.57"/>
  <line class="cls-1" x1="15.9" y1="66.82" x2="15.9" y2="-.57"/>
  <line class="cls-1" x1="17.85" y1="66.82" x2="17.85" y2="-.57"/>
  <line class="cls-1" x1="19.81" y1="66.82" x2="19.81" y2="-.57"/>
  <line class="cls-1" x1="21.76" y1="66.82" x2="21.76" y2="-.57"/>
  <line class="cls-1" x1="23.72" y1="66.82" x2="23.72" y2="-.57"/>
  <line class="cls-1" x1="25.67" y1="66.82" x2="25.67" y2="-.57"/>
  <line class="cls-1" x1="27.63" y1="66.82" x2="27.63" y2="-.57"/>
  <line class="cls-1" x1="29.58" y1="66.82" x2="29.58" y2="-.57"/>
  <line class="cls-1" x1="31.54" y1="66.82" x2="31.54" y2="-.57"/>
  <line class="cls-1" x1="33.49" y1="66.82" x2="33.49" y2="-.57"/>
  <line class="cls-1" x1="35.45" y1="66.82" x2="35.45" y2="-.57"/>
  <line class="cls-1" x1="37.4" y1="66.82" x2="37.4" y2="-.57"/>
  <line class="cls-1" x1="39.36" y1="66.82" x2="39.36" y2="-.57"/>
  <line class="cls-1" x1="41.31" y1="66.82" x2="41.31" y2="-.57"/>
  <line class="cls-1" x1="43.27" y1="66.82" x2="43.27" y2="-.57"/>
  <line class="cls-1" x1="45.22" y1="66.82" x2="45.22" y2="-.57"/>
  <line class="cls-1" x1="47.83" y1="66.82" x2="47.83" y2="-.57"/>
  <line class="cls-1" x1="2.86" y1="66.82" x2="2.86" y2="-.57"/>
  <line class="cls-1" x1="4.82" y1="66.82" x2="4.82" y2="-.57"/>
  <line class="cls-1" x1="6.77" y1="66.82" x2="6.77" y2="-.57"/>
  <line class="cls-1" x1="8.73" y1="66.82" x2="8.73" y2="-.57"/>
  <line class="cls-1" x1="10.68" y1="66.82" x2="10.68" y2="-.57"/>
  <line class="cls-1" x1="12.64" y1="66.82" x2="12.64" y2="-.57"/>
  <line class="cls-1" x1="14.59" y1="66.82" x2="14.59" y2="-.57"/>
  <line class="cls-1" x1="16.55" y1="66.82" x2="16.55" y2="-.57"/>
  <line class="cls-1" x1="18.5" y1="66.82" x2="18.5" y2="-.57"/>
  <line class="cls-1" x1="20.46" y1="66.82" x2="20.46" y2="-.57"/>
  <line class="cls-1" x1="22.41" y1="66.82" x2="22.41" y2="-.57"/>
  <line class="cls-1" x1="24.37" y1="66.82" x2="24.37" y2="-.57"/>
  <line class="cls-1" x1="26.32" y1="66.82" x2="26.32" y2="-.57"/>
  <line class="cls-1" x1="28.28" y1="66.82" x2="28.28" y2="-.57"/>
  <line class="cls-1" x1="30.23" y1="66.82" x2="30.23" y2="-.57"/>
  <line class="cls-1" x1="32.19" y1="66.82" x2="32.19" y2="-.57"/>
  <line class="cls-1" x1="34.14" y1="66.82" x2="34.14" y2="-.57"/>
  <line class="cls-1" x1="36.1" y1="66.82" x2="36.1" y2="-.57"/>
  <line class="cls-1" x1="38.05" y1="66.82" x2="38.05" y2="-.57"/>
  <line class="cls-1" x1="40.01" y1="66.82" x2="40.01" y2="-.57"/>
  <line class="cls-1" x1="41.96" y1="66.82" x2="41.96" y2="-.57"/>
  <line class="cls-1" x1="43.92" y1="66.82" x2="43.92" y2="-.57"/>
  <line class="cls-1" x1="45.87" y1="66.82" x2="45.87" y2="-.57"/>
  <line class="cls-1" x1="48.48" y1="66.82" x2="48.48" y2="-.57"/>
  <line class="cls-1" x1="47.18" y1="66.88" x2="47.18" y2="-.52"/>
</svg>