<?xml version="1.0" encoding="UTF-8"?>
<svg id="_レイヤー_1" data-name="レイヤー_1" xmlns="http://www.w3.org/2000/svg" xmlns:xlink="http://www.w3.org/1999/xlink" viewBox="0 0 47.97 79.84">
  <defs>
    <style>
      .cls-1 {
        fill: url(#_名称未設定グラデーション_92-2);
      }

      .cls-2 {
        fill: url(#_名称未設定グラデーション_92);
      }
    </style>
    <linearGradient id="_名称未設定グラデーション_92" data-name="名称未設定グラデーション 92" x1="36.41" y1="73.42" x2=".99" y2="12.07" gradientUnits="userSpaceOnUse">
      <stop offset=".17" stop-color="#b6c5e3"/>
      <stop offset=".65" stop-color="#4068b1"/>
      <stop offset=".96" stop-color="#2d51a2"/>
    </linearGradient>
    <linearGradient id="_名称未設定グラデーション_92-2" data-name="名称未設定グラデーション 92" x1="48.95" y1="66.18" x2="13.53" y2="4.83" xlink:href="#_名称未設定グラデーション_92"/>
  </defs>
  <path class="cls-2" d="M23.74,11.69c3.58,5.35,6.7,11.02,9.01,17.1,2.3,6.05,3.79,12.58,3.53,19.19-.13,3.29-.72,6.57-1.8,9.65-1.08,3.08-2.65,5.94-4.56,8.47-1.91,2.54-4.15,4.75-6.54,6.7-2.4,1.95-5.02,3.56-7.65,5.06,2.38-1.9,4.68-3.87,6.68-6.1,1.99-2.23,3.75-4.63,5.12-7.19,2.78-5.13,3.76-10.89,3.07-16.41-.66-5.54-2.78-10.85-5.59-15.76-2.81-4.92-6.35-9.48-10.23-13.67l8.96-7.04Z"/>
  <polygon class="cls-1" points="29.19 8.7 11.3 24.23 12.48 7.52 29.19 8.7"/>
</svg>