<?xml version="1.0" encoding="UTF-8"?>
<svg id="_レイヤー_1" data-name="レイヤー_1" xmlns="http://www.w3.org/2000/svg" xmlns:xlink="http://www.w3.org/1999/xlink" viewBox="0 0 47.97 79.84">
  <defs>
    <style>
      .cls-1 {
        fill: url(#_名称未設定グラデーション_114-2);
      }

      .cls-2 {
        fill: url(#_名称未設定グラデーション_114);
      }
    </style>
    <linearGradient id="_名称未設定グラデーション_114" data-name="名称未設定グラデーション 114" x1="41.97" y1="10.9" x2="7.7" y2="70.27" gradientUnits="userSpaceOnUse">
      <stop offset=".17" stop-color="#f08c7c"/>
      <stop offset=".65" stop-color="#f1937c"/>
      <stop offset=".93" stop-color="#a02f24"/>
    </linearGradient>
    <linearGradient id="_名称未設定グラデーション_114-2" data-name="名称未設定グラデーション 114" x1="58.07" y1="20.2" x2="23.8" y2="79.56" xlink:href="#_名称未設定グラデーション_114"/>
  </defs>
  <path class="cls-2" d="M22.21,73.69c-3.58-5.35-6.7-11.02-9.01-17.1-2.3-6.05-3.79-12.58-3.53-19.19.13-3.29.72-6.57,1.8-9.65,1.08-3.08,2.65-5.94,4.56-8.47,1.91-2.54,4.15-4.75,6.54-6.7,2.4-1.95,5.02-3.56,7.65-5.06-2.38,1.9-4.68,3.87-6.68,6.1-1.99,2.23-3.75,4.63-5.12,7.19-2.78,5.13-3.76,10.89-3.07,16.41.66,5.54,2.78,10.85,5.59,15.76,2.81,4.92,6.35,9.48,10.23,13.67l-8.96,7.04Z"/>
  <polygon class="cls-1" points="16.77 76.69 34.66 61.16 33.47 77.86 16.77 76.69"/>
</svg>